<mxfile host="app.diagrams.net" agent="Mozilla/5.0 (Windows NT 10.0; Win64; x64) AppleWebKit/537.36 (KHTML, like Gecko) Chrome/137.0.0.0 Safari/537.36" version="27.1.4">
  <diagram name="Aspire Graph" id="Mzkb-3E1kNFXuyC7beK5">
    <mxGraphModel dx="994" dy="755" grid="1" gridSize="10" guides="1" tooltips="1" connect="1" arrows="1" fold="1" page="1" pageScale="1" pageWidth="827" pageHeight="1169" math="0" shadow="0">
      <root>
        <mxCell id="0" />
        <mxCell id="1" parent="0" />
        <object label="api:audio" image="api-orders:latest" id="api1">
          <mxCell style="rounded=1;whiteSpace=wrap;html=1;fillColor=#dae8fc;strokeColor=#6c8ebf;direction=west;" parent="1" vertex="1">
            <mxGeometry x="80" y="190" width="80" height="40" as="geometry" />
          </mxCell>
        </object>
        <object label="queue:audio" CONNECTION_STRING="Endpoint:XYZ" id="queue1">
          <mxCell style="shape=cylinder;whiteSpace=wrap;html=1;fillColor=#fff2cc;strokeColor=#d6b656;" parent="1" vertex="1">
            <mxGeometry x="190" y="190" width="100" height="40" as="geometry" />
          </mxCell>
        </object>
        <object label="worker:transcribe" AGENT_ENDPOINT="https://agent1.local" id="worker1">
          <mxCell style="rounded=0;whiteSpace=wrap;html=1;fillColor=#e1d5e7;strokeColor=#9673a6;" parent="1" vertex="1">
            <mxGeometry x="180" y="260" width="120" height="50" as="geometry" />
          </mxCell>
        </object>
        <object label="sink:db" DB_ENDPOINT="https://cepal.local" id="sink1">
          <mxCell style="shape=database;whiteSpace=wrap;html=1;fillColor=#d5e8d4;strokeColor=#82b366;" parent="1" vertex="1">
            <mxGeometry x="190" y="685" width="100" height="40" as="geometry" />
          </mxCell>
        </object>
        <mxCell id="arrow1" style="endArrow=block;html=1;strokeColor=#000000;" parent="1" source="api1" target="queue1" edge="1">
          <mxGeometry relative="1" as="geometry" />
        </mxCell>
        <mxCell id="arrow2" style="endArrow=block;html=1;strokeColor=#000000;" parent="1" source="queue1" target="worker1" edge="1">
          <mxGeometry relative="1" as="geometry" />
        </mxCell>
        <mxCell id="arrow3" style="endArrow=block;html=1;strokeColor=#000000;entryX=0.5;entryY=0;entryDx=0;entryDy=0;entryPerimeter=0;" parent="1" source="worker1" target="8EWUY6RVV4EjBTs6Drvq-2" edge="1">
          <mxGeometry relative="1" as="geometry">
            <mxPoint x="240" y="340" as="targetPoint" />
          </mxGeometry>
        </mxCell>
        <object label="queue:&lt;div&gt;summaries&lt;/div&gt;" CONNECTION_STRING="Endpoint:YZA" id="uAy1K2etTnsJfMtenJ4F-1">
          <mxCell style="shape=cylinder;whiteSpace=wrap;html=1;fillColor=#fff2cc;strokeColor=#d6b656;" parent="1" vertex="1">
            <mxGeometry x="190" y="470" width="100" height="40" as="geometry" />
          </mxCell>
        </object>
        <mxCell id="uAy1K2etTnsJfMtenJ4F-2" style="endArrow=block;html=1;strokeColor=#000000;exitX=0.5;exitY=1;exitDx=0;exitDy=0;" parent="1" source="uAy1K2etTnsJfMtenJ4F-6" target="sink1" edge="1">
          <mxGeometry relative="1" as="geometry">
            <mxPoint x="670" y="810" as="sourcePoint" />
            <mxPoint x="536" y="680" as="targetPoint" />
          </mxGeometry>
        </mxCell>
        <object label="worker:score" AGENT_ENDPOINT="https://agent2.local" id="uAy1K2etTnsJfMtenJ4F-3">
          <mxCell style="rounded=0;whiteSpace=wrap;html=1;fillColor=#e1d5e7;strokeColor=#9673a6;" parent="1" vertex="1">
            <mxGeometry x="180" y="540" width="120" height="40" as="geometry" />
          </mxCell>
        </object>
        <mxCell id="uAy1K2etTnsJfMtenJ4F-4" style="endArrow=block;html=1;strokeColor=#000000;exitX=0.5;exitY=1;exitDx=0;exitDy=0;" parent="1" source="uAy1K2etTnsJfMtenJ4F-1" target="uAy1K2etTnsJfMtenJ4F-3" edge="1">
          <mxGeometry relative="1" as="geometry">
            <mxPoint x="120" y="570" as="sourcePoint" />
          </mxGeometry>
        </mxCell>
        <mxCell id="uAy1K2etTnsJfMtenJ4F-5" style="endArrow=block;html=1;strokeColor=#000000;entryX=0.5;entryY=0;entryDx=0;entryDy=0;exitX=0.5;exitY=1;exitDx=0;exitDy=0;" parent="1" source="uAy1K2etTnsJfMtenJ4F-3" target="uAy1K2etTnsJfMtenJ4F-6" edge="1">
          <mxGeometry relative="1" as="geometry" />
        </mxCell>
        <object label="queue:scores" CONNECTION_STRING="Endpoint:ZAB" id="uAy1K2etTnsJfMtenJ4F-6">
          <mxCell style="shape=cylinder;whiteSpace=wrap;html=1;fillColor=#fff2cc;strokeColor=#d6b656;" parent="1" vertex="1">
            <mxGeometry x="190" y="620" width="100" height="40" as="geometry" />
          </mxCell>
        </object>
        <object label="watcher:audio" DB_ENDPOINT="https://cepal.local" id="W7roT-0tQa_dnEZkSfyX-1">
          <mxCell style="shape=database;whiteSpace=wrap;html=1;fillColor=#d5e8d4;strokeColor=#82b366;" parent="1" vertex="1">
            <mxGeometry x="190" y="110" width="100" height="40" as="geometry" />
          </mxCell>
        </object>
        <mxCell id="W7roT-0tQa_dnEZkSfyX-2" style="endArrow=block;html=1;strokeColor=#000000;entryX=0.5;entryY=0;entryDx=0;entryDy=0;exitX=0.5;exitY=1;exitDx=0;exitDy=0;" parent="1" source="W7roT-0tQa_dnEZkSfyX-1" target="queue1" edge="1">
          <mxGeometry relative="1" as="geometry">
            <mxPoint x="180" y="170" as="sourcePoint" />
            <mxPoint x="220" y="170" as="targetPoint" />
          </mxGeometry>
        </mxCell>
        <object label="queue:&lt;div&gt;transcriptions&lt;/div&gt;" CONNECTION_STRING="Endpoint:YZA" id="8EWUY6RVV4EjBTs6Drvq-2">
          <mxCell style="shape=cylinder;whiteSpace=wrap;html=1;fillColor=#fff2cc;strokeColor=#d6b656;" vertex="1" parent="1">
            <mxGeometry x="190" y="330" width="100" height="40" as="geometry" />
          </mxCell>
        </object>
        <object label="worker:summarize" AGENT_ENDPOINT="https://agent2.local" id="8EWUY6RVV4EjBTs6Drvq-3">
          <mxCell style="rounded=0;whiteSpace=wrap;html=1;fillColor=#e1d5e7;strokeColor=#9673a6;" vertex="1" parent="1">
            <mxGeometry x="180" y="400" width="120" height="40" as="geometry" />
          </mxCell>
        </object>
        <mxCell id="8EWUY6RVV4EjBTs6Drvq-4" style="endArrow=block;html=1;strokeColor=#000000;exitX=0.5;exitY=1;exitDx=0;exitDy=0;" edge="1" parent="1" source="8EWUY6RVV4EjBTs6Drvq-2" target="8EWUY6RVV4EjBTs6Drvq-3">
          <mxGeometry relative="1" as="geometry">
            <mxPoint x="120" y="430" as="sourcePoint" />
          </mxGeometry>
        </mxCell>
        <mxCell id="8EWUY6RVV4EjBTs6Drvq-5" style="endArrow=block;html=1;strokeColor=#000000;exitX=0.5;exitY=1;exitDx=0;exitDy=0;entryX=0.5;entryY=0;entryDx=0;entryDy=0;" edge="1" parent="1" source="8EWUY6RVV4EjBTs6Drvq-3" target="uAy1K2etTnsJfMtenJ4F-1">
          <mxGeometry relative="1" as="geometry">
            <mxPoint x="300" y="470" as="targetPoint" />
          </mxGeometry>
        </mxCell>
      </root>
    </mxGraphModel>
  </diagram>
</mxfile>
